<svg width="327" height="288" viewBox="0 0 327 288" fill="none" xmlns="http://www.w3.org/2000/svg">
<path d="M277.205 98.4017C282.298 87.1514 297.236 58.0096 270.704 34.195C249.833 15.4623 226.832 9 218.353 9C212.001 9 199.032 26.3944 196.744 43.1352C194.578 58.9879 246.015 90.929 277.205 98.4017ZM277.205 98.4017C295.482 108.073 318.289 115.61 317.837 139.276C317.385 162.942 295.105 172.226 277.205 178.863M277.205 98.4017C261.719 117.366 246.321 129.279 204.871 136.601C240.786 136.601 269.253 165.998 277.205 178.863M277.205 178.863C283.988 202.946 287.101 235.268 270.704 251.197C270.704 251.197 257.35 262.725 243.224 269.552C229.099 276.379 218.353 278.018 218.353 278.018C207.425 278.776 196.038 248.271 199.994 235.755C207.372 212.419 249.131 187.017 277.205 178.863Z" stroke="url(#paint0_linear_1803_2131)" stroke-width="18"/>
<path d="M49.6385 98.4017C44.546 87.1514 29.6076 58.0096 56.14 34.195C77.0106 15.4623 100.012 9 108.49 9C114.843 9 127.812 26.3944 130.1 43.1352C132.266 58.9879 80.8285 90.929 49.6385 98.4017ZM49.6385 98.4017C31.3621 108.073 8.55442 115.61 9.00662 139.276C9.45882 162.942 31.7389 172.226 49.6385 178.863M49.6385 98.4017C65.1248 117.366 80.5231 129.279 121.973 136.601C86.058 136.601 57.591 165.998 49.6385 178.863M49.6385 178.863C42.8555 202.946 39.7423 235.268 56.14 251.197C56.14 251.197 69.4937 262.725 83.6194 269.552C97.7451 276.379 108.491 278.018 108.491 278.018C119.419 278.776 130.806 248.271 126.849 235.755C119.472 212.419 77.7125 187.017 49.6385 178.863Z" stroke="url(#paint1_linear_1803_2131)" stroke-width="18"/>
<path d="M139.844 170.13C141.587 172.424 186.45 173.109 187.986 169.994C189.521 166.879 207.206 134.207 207.206 134.207C207.206 134.207 188.843 99.8976 186.236 97.4957C183.63 95.0938 141.37 96.0259 139.639 97.6275C137.908 99.2291 118.24 134.459 118.24 134.459C118.24 134.459 138.101 167.837 139.844 170.13Z" stroke="url(#paint2_linear_1803_2131)" stroke-width="8"/>
<path d="M182.092 108.906L181.933 108.634C181.078 107.328 179.335 106.797 177.89 107.453C176.446 108.108 175.813 109.718 176.382 111.154L176.512 111.438L187.957 133.492C188.736 134.994 190.617 135.644 192.158 134.945C193.699 134.245 194.316 132.461 193.537 130.959L182.092 108.906Z" fill="url(#paint3_linear_1803_2131)"/>
<path d="M143.565 108.906L143.724 108.634C144.579 107.328 146.322 106.797 147.767 107.453C149.211 108.108 149.844 109.718 149.275 111.154L149.145 111.438L137.7 133.492C136.921 134.994 135.04 135.644 133.499 134.945C131.958 134.245 131.341 132.461 132.12 130.959L143.565 108.906Z" fill="url(#paint4_linear_1803_2131)"/>
<path d="M176.117 156.385L176.43 156.401C177.975 156.557 179.18 157.862 179.18 159.449C179.18 161.035 177.974 162.34 176.429 162.497L176.116 162.513H149.564C147.872 162.513 146.501 161.141 146.501 159.449C146.501 157.757 147.873 156.385 149.565 156.385H176.117Z" fill="url(#paint5_linear_1803_2131)"/>
<defs>
<linearGradient id="paint0_linear_1803_2131" x1="257.261" y1="9" x2="257.261" y2="278.032" gradientUnits="userSpaceOnUse">
<stop stop-color="#00B9E8"/>
<stop offset="1" stop-color="#1BB3CF"/>
</linearGradient>
<linearGradient id="paint1_linear_1803_2131" x1="69.5829" y1="9" x2="69.5829" y2="278.032" gradientUnits="userSpaceOnUse">
<stop stop-color="#00B9E8"/>
<stop offset="1" stop-color="#1BB3CF"/>
</linearGradient>
<linearGradient id="paint2_linear_1803_2131" x1="185.7" y1="97.1806" x2="145.753" y2="173.292" gradientUnits="userSpaceOnUse">
<stop stop-color="#00B9E8"/>
<stop offset="1" stop-color="#1BB3CF"/>
</linearGradient>
<linearGradient id="paint3_linear_1803_2131" x1="187.814" y1="119.932" x2="182.383" y2="122.751" gradientUnits="userSpaceOnUse">
<stop stop-color="#00B9E8"/>
<stop offset="1" stop-color="#1BB3CF"/>
</linearGradient>
<linearGradient id="paint4_linear_1803_2131" x1="137.843" y1="119.932" x2="143.274" y2="122.751" gradientUnits="userSpaceOnUse">
<stop stop-color="#00B9E8"/>
<stop offset="1" stop-color="#1BB3CF"/>
</linearGradient>
<linearGradient id="paint5_linear_1803_2131" x1="162.841" y1="156.385" x2="162.841" y2="162.513" gradientUnits="userSpaceOnUse">
<stop stop-color="#00B9E8"/>
<stop offset="1" stop-color="#1BB3CF"/>
</linearGradient>
</defs>
</svg>
